<svg width="251" height="242" viewBox="0 0 251 242" xmlns="http://www.w3.org/2000/svg" xmlns:xlink="http://www.w3.org/1999/xlink"><svg id="comment" data-name="Layer 1" width="66" height="66" viewBox="-1 -1 66 66" x="184.06" xmlns="http://www.w3.org/2000/svg"><defs><style>.acls-1{fill:#2f5572}</style></defs><title>comment</title><path class="acls-1" d="M.72.08A.67.67 0 0 0 0 .8v46.48a.72.72 0 0 0 .72.72H48l16 16V.72a.67.67 0 0 0-.72-.72H.8z"/></svg><svg id="facebook" data-name="Layer 1" width="23.23" height="44.01" viewBox="-1 -1 23.23 44.01" x="128" y="110" xmlns="http://www.w3.org/2000/svg"><defs><style>.bcls-1{fill:#fff}</style></defs><title>facebook</title><path class="bcls-1" d="M21.23.31V7H17.4a3.55 3.55 0 0 0-2.85.91 4.26 4.26 0 0 0-.74 2.72v4.77H21l-1 7.47h-6.19V42H6.27V22.85H0v-7.47h6.27V9.85q0-4.69 2.55-7.28A9 9 0 0 1 15.63 0a39.57 39.57 0 0 1 5.6.31z"/></svg><svg id="fire" data-name="Layer 1" width="58" height="66" viewBox="-1 -1 58 66" x="126.06" xmlns="http://www.w3.org/2000/svg"><defs><style>.ccls-1{fill:#d4953d}</style></defs><title>Untitled-2</title><path class="ccls-1" d="M16 0C24 16 0 24 0 40s16 24 16 24C8.16 48.16 32 40 32 24S16 0 16 0zm24 24c8 16-16 24-16 40h24c3.2 0 8-4 8-16 0-16-16-24-16-24z"/></svg><svg id="globe" data-name="Layer 1" width="66" height="66" viewBox="-1 -1 66 66" y="110" xmlns="http://www.w3.org/2000/svg"><defs><style>.dcls-1{fill:#d4953f}</style></defs><title>globe</title><path class="dcls-1" d="M32 0a32 32 0 1 0 32 32A32 32 0 0 0 32 0zm0 8a23.75 23.75 0 0 1 7.52 1.52c-1.68 1.6-3.6 3-3.28 4.48s5.52 1 5.52 4c0 2.16-3.36 2.8-1 5.28 2.8 2.8-5.12 7.84-5.28 11.52-.24 6.64 6.72 7.76 12.24 7.76 3.36 0 4.24 1.6 4 3.52a24.07 24.07 0 0 1-19.76 10 22.94 22.94 0 0 1-8.48-1.76c1.76-3.52-2.24-10.48-6-12.72-1.84-1.84-5.76-1.12-8-2a23.49 23.49 0 0 1-1.52-6.72 1.42 1.42 0 0 1 1.28-.72c1.52 0 3.6 3 4.72 2.72 1.4-.32-5.96-10.48-2.52-12.48 1.6-1 4.8 3.12 3.76-1.28-1-4.08 2.88-2.24 5.28-3.28 2.08-.88 3.6-3.28 1-4.72a8.55 8.55 0 0 1-1.76-1.52A23.75 23.75 0 0 1 32 8.08V8zm18.48 8.72A26.46 26.46 0 0 1 54 22.48v.24a11.78 11.78 0 0 1-1.76 1.76C50 26.72 49.68 22.8 48.72 22c-1-1-4.8.16-5.28-1-.56-1.48 4-3.4 7.04-4.28z"/></svg><svg id="instagram" data-name="Layer 1" width="44.01" height="44.01" viewBox="-1 -1 44.01 44.01" x="66" y="176" xmlns="http://www.w3.org/2000/svg"><defs><style>.ecls-1{fill:#fff}</style></defs><title>instagram</title><path class="ecls-1" d="M37.25 35.49V17.77h-3.69a11.77 11.77 0 0 1 .57 3.58 12.12 12.12 0 0 1-1.75 6.36 12.76 12.76 0 0 1-4.76 4.59 13.13 13.13 0 0 1-6.56 1.7 12.78 12.78 0 0 1-9.19-3.71 12 12 0 0 1-3.83-9 11.77 11.77 0 0 1 .49-3.56H4.68v17.76a1.63 1.63 0 0 0 1.6 1.67h29.3a1.63 1.63 0 0 0 1.17-.47 1.59 1.59 0 0 0 .5-1.2zm-7.77-14.57A7.75 7.75 0 0 0 27 15.14a8.28 8.28 0 0 0-6-2.4 8.25 8.25 0 0 0-5.91 2.39 7.75 7.75 0 0 0-2.47 5.78 7.75 7.75 0 0 0 2.47 5.79A8.25 8.25 0 0 0 21 29.1a8.28 8.28 0 0 0 6-2.4 7.75 7.75 0 0 0 2.48-5.78zm7.76-9.84V6.56a1.84 1.84 0 0 0-.54-1.31 1.8 1.8 0 0 0-1.31-.56h-4.78a1.8 1.8 0 0 0-1.31.56 1.84 1.84 0 0 0-.54 1.31v4.52A1.87 1.87 0 0 0 30.6 13h4.8a1.87 1.87 0 0 0 1.85-1.89zM42 5.39v31.23A5.41 5.41 0 0 1 36.62 42H5.39a5.19 5.19 0 0 1-3.8-1.59A5.19 5.19 0 0 1 0 36.62V5.39a5.19 5.19 0 0 1 1.59-3.8A5.19 5.19 0 0 1 5.39 0h31.23a5.19 5.19 0 0 1 3.8 1.59A5.19 5.19 0 0 1 42 5.39z"/></svg><svg viewBox="0.09 6.91 126.06 60" width="126.06" height="60" id="logo" xmlns="http://www.w3.org/2000/svg"><defs><style>.cls-1{fill:#fff}</style></defs><path d="M11.012 12.661l2.69 10.7 2.19-10.7h2.45l-3.28 14.22h-2.37l-2.7-10.38-2.77 10.38h-2.37l-3.28-14.22h2.45l2.21 10.68 2.71-10.68h2.07zm11.419 3.65v10.57h-2.37v-10.57h2.37zm-2.52-2.74c0-.367.117-.67.35-.91.227-.24.557-.36.99-.36.427 0 .757.12.99.36.24.24.36.543.36.91 0 .36-.12.657-.36.89-.233.24-.563.36-.99.36-.433 0-.763-.12-.99-.36-.233-.233-.35-.53-.35-.89zm5.705.18h2.37v2.56h1.86v1.76h-1.86v5.9c0 .407.08.697.24.87.16.18.443.27.85.27.273 0 .55-.033.83-.1v1.84c-.54.153-1.06.23-1.56.23-1.82 0-2.73-1.007-2.73-3.02v-5.99h-1.74v-1.76h1.74v-2.56zm8.377-1.87v5.59c.78-.9 1.76-1.35 2.94-1.35 2.253 0 3.397 1.287 3.43 3.86v6.9h-2.37v-6.82c0-.727-.157-1.24-.47-1.54-.32-.307-.787-.46-1.4-.46-.947 0-1.657.423-2.13 1.27v7.55h-2.37v-15h2.37zm13.706 4.43h2.24l.07 1.22c.78-.94 1.803-1.41 3.07-1.41 2.2 0 3.32 1.26 3.36 3.78v6.98h-2.37v-6.85c0-.667-.147-1.16-.44-1.48-.287-.327-.76-.49-1.42-.49-.953 0-1.667.433-2.14 1.3v7.52h-2.37v-10.57zm15.807 10.77c-1.506 0-2.726-.477-3.66-1.43-.933-.947-1.4-2.207-1.4-3.78v-.29c0-1.053.204-1.997.61-2.83.407-.833.977-1.48 1.71-1.94.74-.46 1.564-.69 2.47-.69 1.434 0 2.544.46 3.33 1.38.787.913 1.18 2.21 1.18 3.89v.96h-6.91c.074.873.367 1.563.88 2.07.507.507 1.15.76 1.93.76 1.087 0 1.97-.44 2.65-1.32l1.28 1.22a4.213 4.213 0 0 1-1.69 1.47c-.706.353-1.5.53-2.38.53zm-.28-9.06c-.653 0-1.18.23-1.58.69-.4.453-.656 1.087-.77 1.9h4.52v-.18c-.046-.793-.256-1.393-.63-1.8-.373-.407-.886-.61-1.54-.61zm13.438-1.71l2.2 7.3 1.68-7.3h2.31l-2.88 10.57h-1.951l-2.269-7.26-2.22 7.26h-1.96l-2.89-10.57h2.32l1.71 7.22 2.16-7.22h1.79zm12.425 10.77c-1.506 0-2.726-.477-3.66-1.43-.933-.947-1.4-2.207-1.4-3.78v-.29c0-1.053.204-1.997.61-2.83.407-.833.977-1.48 1.71-1.94.74-.46 1.564-.69 2.47-.69 1.434 0 2.544.46 3.33 1.38.787.913 1.18 2.21 1.18 3.89v.96h-6.91c.074.873.367 1.563.88 2.07.507.507 1.15.76 1.93.76 1.087 0 1.97-.44 2.65-1.32l1.28 1.22a4.213 4.213 0 0 1-1.69 1.47c-.706.353-1.5.53-2.38.53zm-.28-9.06c-.653 0-1.18.23-1.58.69-.4.453-.656 1.087-.77 1.9h4.52v-.18c-.046-.793-.256-1.393-.63-1.8-.373-.407-.886-.61-1.54-.61zm12.277 5.99c0-.427-.173-.75-.52-.97-.353-.22-.933-.413-1.74-.58-.806-.173-1.48-.39-2.02-.65-1.186-.573-1.78-1.403-1.78-2.49 0-.913.387-1.673 1.16-2.28.767-.613 1.744-.92 2.93-.92 1.26 0 2.28.313 3.06.94.774.62 1.16 1.43 1.16 2.43h-2.37c0-.46-.17-.84-.51-1.14-.333-.3-.78-.45-1.34-.45-.526 0-.953.12-1.28.36-.326.24-.49.56-.49.96 0 .367.154.65.46.85.307.207.924.41 1.85.61.934.207 1.667.453 2.2.74.527.28.92.62 1.18 1.02.254.393.38.873.38 1.44 0 .953-.393 1.723-1.18 2.31-.786.593-1.816.89-3.09.89-.866 0-1.64-.157-2.32-.47-.673-.313-1.2-.743-1.58-1.29a3.042 3.042 0 0 1-.57-1.77h2.31c.034.56.244.99.63 1.29.394.307.91.46 1.55.46.627 0 1.104-.12 1.43-.36.327-.233.49-.543.49-.93zm4.998-10.26h2.37v2.56h1.86v1.76h-1.86v5.9c0 .407.08.697.24.87.16.18.443.27.85.27.273 0 .55-.033.83-.1v1.84c-.54.153-1.06.23-1.56.23-1.82 0-2.73-1.007-2.73-3.02v-5.99h-1.74v-1.76h1.74v-2.56zM15.247 33.28v2.39h-5.32v14.67h-2.94V35.67h-5.27v-2.39h13.53zm6.498 17.29c-1.8 0-3.263-.567-4.39-1.7-1.12-1.14-1.68-2.653-1.68-4.54v-.35c0-1.267.247-2.4.74-3.4.487-.993 1.17-1.767 2.05-2.32a5.464 5.464 0 0 1 2.95-.83c1.727 0 3.063.55 4.01 1.65.94 1.1 1.41 2.657 1.41 4.67v1.15h-8.29c.087 1.047.437 1.877 1.05 2.49.613.607 1.387.91 2.32.91 1.3 0 2.36-.527 3.18-1.58l1.54 1.46a5.13 5.13 0 0 1-2.03 1.77c-.847.413-1.8.62-2.86.62zm-.34-10.86c-.78 0-1.41.273-1.89.82-.48.547-.787 1.31-.92 2.29h5.43v-.21c-.067-.953-.323-1.677-.77-2.17-.44-.487-1.057-.73-1.85-.73zm12.843 8.59c.707 0 1.297-.207 1.77-.62.467-.413.717-.927.75-1.54h2.68a4.19 4.19 0 0 1-.74 2.21c-.46.687-1.083 1.23-1.87 1.63a5.686 5.686 0 0 1-2.56.59c-1.773 0-3.18-.573-4.22-1.72-1.033-1.147-1.55-2.733-1.55-4.76v-.29c0-1.927.514-3.47 1.54-4.63 1.034-1.16 2.44-1.74 4.22-1.74 1.507 0 2.737.437 3.69 1.31.947.88 1.444 2.037 1.49 3.47h-2.68c-.033-.727-.283-1.327-.75-1.8-.46-.467-1.05-.7-1.77-.7-.92 0-1.63.333-2.13 1s-.756 1.68-.77 3.04v.46c0 1.373.25 2.4.75 3.08.494.673 1.21 1.01 2.15 1.01zm10.158-15.96v6.7c.926-1.073 2.1-1.61 3.52-1.61 2.706 0 4.08 1.54 4.12 4.62v8.29h-2.85v-8.18c0-.873-.19-1.493-.57-1.86-.38-.36-.937-.54-1.67-.54-1.14 0-1.99.507-2.55 1.52v9.06h-2.85v-18h2.85zm10.468 5.32h2.68l.08 1.47c.94-1.133 2.174-1.7 3.7-1.7 2.64 0 3.984 1.51 4.03 4.53v8.38h-2.85v-8.21c0-.807-.173-1.403-.52-1.79-.346-.387-.916-.58-1.71-.58-1.146 0-2 .52-2.56 1.56v9.02h-2.85V37.66zm16.413 0v12.68h-2.85V37.66h2.85zm-3.03-3.29c0-.44.14-.803.42-1.09.28-.293.676-.44 1.19-.44.513 0 .913.147 1.2.44.28.287.42.65.42 1.09 0 .427-.14.783-.42 1.07-.287.287-.687.43-1.2.43-.514 0-.91-.143-1.19-.43a1.47 1.47 0 0 1-.42-1.07zm5.596 9.52c0-1.98.453-3.553 1.36-4.72.9-1.16 2.123-1.74 3.67-1.74 1.42 0 2.543.493 3.37 1.48l.16-1.25h2.53v17.56h-2.84v-5.96c-.833.873-1.913 1.31-3.24 1.31-1.513 0-2.727-.59-3.64-1.77-.913-1.187-1.37-2.823-1.37-4.91zm2.84.25c0 1.3.257 2.317.77 3.05.513.74 1.223 1.11 2.13 1.11 1.127 0 1.963-.48 2.51-1.44v-5.77c-.547-.92-1.377-1.38-2.49-1.38-.907 0-1.62.363-2.14 1.09-.52.727-.78 1.84-.78 3.34zm19.063 6.2l-.07-1.24c-.833.98-2.02 1.47-3.56 1.47-1.373 0-2.413-.4-3.12-1.2-.713-.807-1.07-1.97-1.07-3.49v-8.22h2.85v8.18c0 1.607.67 2.41 2.01 2.41 1.38 0 2.314-.493 2.8-1.48v-9.11h2.84v12.68h-2.68zm11.161.23c-1.8 0-3.264-.567-4.39-1.7-1.12-1.14-1.68-2.653-1.68-4.54v-.35c0-1.267.246-2.4.74-3.4.486-.993 1.17-1.767 2.05-2.32a5.462 5.462 0 0 1 2.95-.83c1.726 0 3.063.55 4.01 1.65.94 1.1 1.41 2.657 1.41 4.67v1.15h-8.29c.086 1.047.436 1.877 1.05 2.49.613.607 1.386.91 2.32.91 1.3 0 2.36-.527 3.18-1.58l1.54 1.46a5.137 5.137 0 0 1-2.03 1.77c-.847.413-1.8.62-2.86.62zm-.34-10.86c-.78 0-1.41.273-1.89.82-.48.547-.787 1.31-.92 2.29h5.43v-.21c-.067-.953-.324-1.677-.77-2.17-.44-.487-1.057-.73-1.85-.73zm14.743 7.18c0-.507-.21-.893-.63-1.16-.42-.26-1.113-.493-2.08-.7-.966-.2-1.776-.457-2.43-.77-1.42-.687-2.13-1.683-2.13-2.99 0-1.093.46-2.007 1.38-2.74.927-.733 2.1-1.1 3.52-1.1 1.514 0 2.737.373 3.67 1.12.934.753 1.4 1.727 1.4 2.92h-2.84c0-.547-.203-1.003-.61-1.37-.406-.36-.946-.54-1.62-.54-.626 0-1.136.143-1.53.43-.393.293-.59.68-.59 1.16 0 .44.184.78.55 1.02.367.247 1.11.49 2.23.73 1.114.247 1.99.54 2.63.88.634.34 1.104.75 1.41 1.23.314.473.47 1.05.47 1.73 0 1.14-.473 2.063-1.42 2.77-.946.707-2.186 1.06-3.72 1.06-1.033 0-1.956-.187-2.77-.56-.813-.373-1.446-.89-1.9-1.55a3.647 3.647 0 0 1-.68-2.12h2.76c.04.673.297 1.193.77 1.56.467.36 1.087.54 1.86.54.747 0 1.317-.143 1.71-.43.394-.28.59-.653.59-1.12z" fill="#eee" white-space="pre"/></svg><svg id="mail" data-name="Layer 1" width="66" height="50" viewBox="-1 -1 66 50" y="60" xmlns="http://www.w3.org/2000/svg"><defs><style>.gcls-1{fill:#2f5572}</style></defs><title>mail</title><path class="gcls-1" d="M0 0v8l32 16L64 8V0H0zm0 16v32h64V16L32 32z"/></svg><svg id="rain" data-name="Layer 1" width="66" height="66" viewBox="-1 -1 66 66" y="176" xmlns="http://www.w3.org/2000/svg"><defs><style>.hcls-1{fill:#d4953f}</style></defs><title>rain</title><path class="hcls-1" d="M36 0a20.42 20.42 0 0 0-20 16A16 16 0 0 0 0 32a15.4 15.4 0 0 0 4.27 10.72A11.88 11.88 0 0 1 12 40a10.51 10.51 0 0 1 4.47 1A12 12 0 0 1 28 32a12.06 12.06 0 0 1 11.51 9A11.84 11.84 0 0 1 44 40a11.94 11.94 0 0 1 11 7.52A12.07 12.07 0 0 0 64 36c0-5.2-3.36-10.32-8-12v-4A20 20 0 0 0 36 0zm-9.27 40A4 4 0 0 0 24 44v16a4 4 0 1 0 8 0V44a4 4 0 0 0-4.71-4h-.56zm-16 8A4 4 0 0 0 8 52v8a4 4 0 1 0 8 0v-8a4 4 0 0 0-4.71-4h-.54zm32 0A4 4 0 0 0 40 52v8a4 4 0 1 0 8 0v-8a4 4 0 0 0-4.71-4h-.58z" transform="translate(-.04)"/></svg><svg id="star" data-name="Layer 1" width="66" height="66" viewBox="-1 -1 66 66" x="184.06" y="66" xmlns="http://www.w3.org/2000/svg"><defs><style>.icls-1{fill:#d4953f}</style></defs><title>star</title><path class="icls-1" d="M32 0l-8 24H0l20 16-8 24 20-16 20 16-8-24 20-16H40z"/></svg><svg id="twitter" data-name="Layer 1" width="53.78" height="44.06" viewBox="-1 -1 53.78 44.06" x="66" y="60" xmlns="http://www.w3.org/2000/svg"><defs><style>.jcls-1{fill:#fff}</style></defs><title>twitter</title><path class="jcls-1" d="M51.78 5a22.23 22.23 0 0 1-5.32 5.52v1.38a30.15 30.15 0 0 1-1.25 8.53 30.81 30.81 0 0 1-3.76 8.13 32.1 32.1 0 0 1-6.06 6.92 27 27 0 0 1-8.48 4.8 31 31 0 0 1-10.62 1.8A29.47 29.47 0 0 1 0 37.29a22.71 22.71 0 0 0 2.56.13 20.78 20.78 0 0 0 13.17-4.53 10.63 10.63 0 0 1-9.92-7.36 13.45 13.45 0 0 0 2 .16 11 11 0 0 0 2.79-.36 10.44 10.44 0 0 1-6.09-3.67 10.25 10.25 0 0 1-2.41-6.75v-.13a10.52 10.52 0 0 0 4.8 1.34 10.6 10.6 0 0 1-3.45-3.78 10.34 10.34 0 0 1-1.28-5.07 10.4 10.4 0 0 1 1.45-5.33 30.08 30.08 0 0 0 9.71 7.83A29.57 29.57 0 0 0 25.53 13a11.79 11.79 0 0 1-.26-2.43 10.23 10.23 0 0 1 3-7.48 10.64 10.64 0 0 1 15 0l.21.22A20.81 20.81 0 0 0 50.33.8a10.3 10.3 0 0 1-4.67 5.85A21.14 21.14 0 0 0 51.78 5z"/></svg><svg id="wifi" data-name="Layer 1" width="62" height="66" viewBox="-1 -1 62 66" x="66" y="110" xmlns="http://www.w3.org/2000/svg"><defs><style>.kcls-1{fill:#d4953e}</style></defs><title>wifi</title><path class="kcls-1" d="M29.88 0A55.39 55.39 0 0 0 0 8.72l4.22 6.48a47.32 47.32 0 0 1 25.66-7.28 47.31 47.31 0 0 1 25.9 7.28L60 8.72A55.53 55.53 0 0 0 29.88 0zm0 24a31.08 31.08 0 0 0-17 5l4.22 6.72A23.09 23.09 0 0 1 29.8 32a24.17 24.17 0 0 1 13 3.76L47 29a32.37 32.37 0 0 0-17.2-5h.07zm0 24a8 8 0 1 0 8 8 8 8 0 0 0-8-8z"/></svg><svg id="youtube" data-name="Layer 1" width="36.75" height="44" viewBox="-1 -1 36.75 44" x="184.06" y="132" xmlns="http://www.w3.org/2000/svg"><defs><style>.lcls-1{fill:#fff}</style></defs><title>youtube</title><path class="lcls-1" d="M22.13 29.15v5q0 1.57-.91 1.57a1.5 1.5 0 0 1-1.06-.52v-7.11a1.5 1.5 0 0 1 1.06-.54q.91 0 .91 1.6zm7.92 0v1.08h-2.1v-1.06q0-1.59 1.06-1.59t1 1.59zM7.42 24h2.5v-2.14h-7.3v2.2h2.46V37.4h2.34V24zm6.75 13.4h2.09V25.82h-2.09v8.86a1.86 1.86 0 0 1-1.31 1 .48.48 0 0 1-.49-.47 6.52 6.52 0 0 1 0-.82v-8.57h-2.14V35a5.79 5.79 0 0 0 .19 1.71 1.26 1.26 0 0 0 1.36.87 3.43 3.43 0 0 0 2.39-1.43v1.25zm10.05-3.47v-4.6A8.33 8.33 0 0 0 24 27a1.63 1.63 0 0 0-1.67-1.31A2.82 2.82 0 0 0 20.16 27v-5.1h-2.08v15.5h2.09v-1.13a2.91 2.91 0 0 0 2.18 1.31A1.62 1.62 0 0 0 24 36.27a8.61 8.61 0 0 0 .22-2.35zm7.92-.24v-.3H30a11.6 11.6 0 0 1 0 1.43.9.9 0 0 1-.94.85q-1.08 0-1.08-1.61V32h4.19v-2.41a4.65 4.65 0 0 0-.66-2.72 3.2 3.2 0 0 0-5 0 4.52 4.52 0 0 0-.66 2.72v4.05a4.4 4.4 0 0 0 .66 2.72 3 3 0 0 0 2.49 1.2 2.9 2.9 0 0 0 3-2.51 10.31 10.31 0 0 0 .09-1.36zM17.89 12.3V7.38q0-1.61-1-1.61t-1 1.61v4.92q0 1.64 1 1.64t1-1.64zm16.85 17.6a40.6 40.6 0 0 1-.61 8.2 4.45 4.45 0 0 1-1.36 2.32 4.1 4.1 0 0 1-2.39 1.08 125.31 125.31 0 0 1-13 .49 125.31 125.31 0 0 1-13-.49A4.15 4.15 0 0 1 2 40.42 4.28 4.28 0 0 1 .63 38.1 39.76 39.76 0 0 1 0 29.9a40.6 40.6 0 0 1 .61-8.2A4.45 4.45 0 0 1 2 19.37a4.25 4.25 0 0 1 2.41-1.1q4.29-.47 13-.47t13 .47a4.4 4.4 0 0 1 3.75 3.42 39.76 39.76 0 0 1 .58 8.21zM11.35 0h2.39l-2.83 9.35v6.35H8.57V9.35a39.68 39.68 0 0 0-1.43-5Q6.27 2 5.61 0H8.1l1.67 6.16zM20 7.8v4.1a4.59 4.59 0 0 1-.66 2.76 2.88 2.88 0 0 1-2.49 1.19 2.9 2.9 0 0 1-2.46-1.19 4.68 4.68 0 0 1-.66-2.76V7.8a4.59 4.59 0 0 1 .66-2.74 2.9 2.9 0 0 1 2.46-1.19 2.88 2.88 0 0 1 2.49 1.19A4.59 4.59 0 0 1 20 7.8zM27.87 4v11.7h-2.13v-1.27a3.37 3.37 0 0 1-2.41 1.45A1.31 1.31 0 0 1 22 15a6 6 0 0 1-.19-1.76V4h2.13v8.6a6.14 6.14 0 0 0 0 .82.49.49 0 0 0 .47.52 1.87 1.87 0 0 0 1.31-1V4h2.16z"/></svg></svg>